<mxfile host="app.diagrams.net" modified="2020-11-30T13:09:40.603Z" agent="5.0 (Windows)" etag="lQD04tYeWoYizHfk9VOE" version="13.10.4" type="github">
  <diagram id="dmc0C6WjcmXXdUI7Bngn" name="Page-1">
    <mxGraphModel dx="942" dy="555" grid="1" gridSize="10" guides="1" tooltips="1" connect="1" arrows="1" fold="1" page="1" pageScale="1" pageWidth="827" pageHeight="1169" background="#283618" math="0" shadow="0">
      <root>
        <mxCell id="0" />
        <mxCell id="1" parent="0" />
        <mxCell id="qOLbYZmSiS41-zX6Ey2k-1" value="" style="whiteSpace=wrap;html=1;aspect=fixed;fillColor=#BC6C25;strokeColor=#DDA15E;fontColor=#FEFAE0;" vertex="1" parent="1">
          <mxGeometry x="150" y="20" width="510" height="510" as="geometry" />
        </mxCell>
        <mxCell id="qOLbYZmSiS41-zX6Ey2k-2" value="&lt;h1&gt;Karwez Users Interactions:&lt;br&gt;&lt;/h1&gt;&lt;p&gt;Describes how does the system users interacts with the system.&lt;br&gt;&lt;/p&gt;" style="text;html=1;strokeColor=none;fillColor=none;spacing=5;spacingTop=-20;whiteSpace=wrap;overflow=hidden;fontColor=#FEFAE0;" vertex="1" parent="1">
          <mxGeometry x="670" y="30" width="190" height="120" as="geometry" />
        </mxCell>
        <mxCell id="qOLbYZmSiS41-zX6Ey2k-3" value="Actor" style="shape=umlActor;verticalLabelPosition=bottom;verticalAlign=top;html=1;outlineConnect=0;fillColor=#BC6C25;strokeColor=#DDA15E;fontColor=#FEFAE0;" vertex="1" parent="1">
          <mxGeometry x="60" y="55" width="30" height="60" as="geometry" />
        </mxCell>
        <mxCell id="qOLbYZmSiS41-zX6Ey2k-4" value="Actor" style="shape=umlActor;verticalLabelPosition=bottom;verticalAlign=top;html=1;outlineConnect=0;fillColor=#BC6C25;strokeColor=#DDA15E;fontColor=#FEFAE0;" vertex="1" parent="1">
          <mxGeometry x="60" y="340" width="30" height="60" as="geometry" />
        </mxCell>
        <mxCell id="qOLbYZmSiS41-zX6Ey2k-5" value="Admin" style="text;html=1;strokeColor=none;fillColor=none;align=center;verticalAlign=middle;whiteSpace=wrap;fontColor=#FEFAE0;" vertex="1" parent="1">
          <mxGeometry x="55" y="140" width="40" height="20" as="geometry" />
        </mxCell>
        <mxCell id="qOLbYZmSiS41-zX6Ey2k-6" value="&lt;div&gt;Customer&lt;/div&gt;" style="text;html=1;strokeColor=none;fillColor=none;align=center;verticalAlign=middle;whiteSpace=wrap;fontColor=#FEFAE0;" vertex="1" parent="1">
          <mxGeometry x="55" y="430" width="40" height="20" as="geometry" />
        </mxCell>
        <mxCell id="qOLbYZmSiS41-zX6Ey2k-7" value="Index Page" style="ellipse;whiteSpace=wrap;html=1;fillColor=#BC6C25;strokeColor=#DDA15E;fontColor=#FEFAE0;" vertex="1" parent="1">
          <mxGeometry x="354" y="35" width="120" height="45" as="geometry" />
        </mxCell>
        <mxCell id="qOLbYZmSiS41-zX6Ey2k-8" value="Login" style="ellipse;whiteSpace=wrap;html=1;fillColor=#BC6C25;strokeColor=#DDA15E;fontColor=#FEFAE0;" vertex="1" parent="1">
          <mxGeometry x="234" y="105" width="120" height="45" as="geometry" />
        </mxCell>
        <mxCell id="qOLbYZmSiS41-zX6Ey2k-11" value="Section" style="ellipse;whiteSpace=wrap;html=1;fillColor=#BC6C25;strokeColor=#DDA15E;fontColor=#FEFAE0;" vertex="1" parent="1">
          <mxGeometry x="360" y="172.5" width="120" height="45" as="geometry" />
        </mxCell>
        <mxCell id="qOLbYZmSiS41-zX6Ey2k-12" value="ordering page" style="ellipse;whiteSpace=wrap;html=1;fillColor=#BC6C25;strokeColor=#DDA15E;fontColor=#FEFAE0;" vertex="1" parent="1">
          <mxGeometry x="370" y="340" width="120" height="45" as="geometry" />
        </mxCell>
        <mxCell id="qOLbYZmSiS41-zX6Ey2k-13" value="Item Information" style="ellipse;whiteSpace=wrap;html=1;fillColor=#BC6C25;strokeColor=#DDA15E;fontColor=#FEFAE0;" vertex="1" parent="1">
          <mxGeometry x="360" y="270" width="120" height="45" as="geometry" />
        </mxCell>
        <mxCell id="qOLbYZmSiS41-zX6Ey2k-14" value="order report" style="ellipse;whiteSpace=wrap;html=1;fillColor=#BC6C25;strokeColor=#DDA15E;fontColor=#FEFAE0;" vertex="1" parent="1">
          <mxGeometry x="360" y="417.5" width="120" height="45" as="geometry" />
        </mxCell>
        <mxCell id="qOLbYZmSiS41-zX6Ey2k-17" value="" style="endArrow=classic;html=1;entryX=0;entryY=0;entryDx=0;entryDy=0;strokeColor=#DDA15E;fontColor=#FEFAE0;labelBackgroundColor=#283618;" edge="1" parent="1" source="qOLbYZmSiS41-zX6Ey2k-3" target="qOLbYZmSiS41-zX6Ey2k-8">
          <mxGeometry width="50" height="50" relative="1" as="geometry">
            <mxPoint x="390" y="310" as="sourcePoint" />
            <mxPoint x="440" y="260" as="targetPoint" />
          </mxGeometry>
        </mxCell>
        <mxCell id="qOLbYZmSiS41-zX6Ey2k-18" value="" style="endArrow=classic;html=1;entryX=0.5;entryY=1;entryDx=0;entryDy=0;strokeColor=#DDA15E;fontColor=#FEFAE0;labelBackgroundColor=#283618;" edge="1" parent="1" source="qOLbYZmSiS41-zX6Ey2k-4" target="qOLbYZmSiS41-zX6Ey2k-7">
          <mxGeometry width="50" height="50" relative="1" as="geometry">
            <mxPoint x="390" y="310" as="sourcePoint" />
            <mxPoint x="440" y="260" as="targetPoint" />
          </mxGeometry>
        </mxCell>
        <mxCell id="qOLbYZmSiS41-zX6Ey2k-19" value="" style="endArrow=classic;html=1;strokeColor=#DDA15E;fillColor=#BC6C25;fontColor=#FEFAE0;exitX=1;exitY=0.3333333333333333;exitDx=0;exitDy=0;exitPerimeter=0;" edge="1" parent="1" source="qOLbYZmSiS41-zX6Ey2k-4" target="qOLbYZmSiS41-zX6Ey2k-11">
          <mxGeometry width="50" height="50" relative="1" as="geometry">
            <mxPoint x="390" y="310" as="sourcePoint" />
            <mxPoint x="440" y="260" as="targetPoint" />
          </mxGeometry>
        </mxCell>
        <mxCell id="qOLbYZmSiS41-zX6Ey2k-20" value="" style="endArrow=classic;html=1;strokeColor=#DDA15E;fillColor=#BC6C25;fontColor=#FEFAE0;" edge="1" parent="1" target="qOLbYZmSiS41-zX6Ey2k-14">
          <mxGeometry width="50" height="50" relative="1" as="geometry">
            <mxPoint x="90" y="90" as="sourcePoint" />
            <mxPoint x="440" y="260" as="targetPoint" />
          </mxGeometry>
        </mxCell>
        <mxCell id="qOLbYZmSiS41-zX6Ey2k-21" value="" style="endArrow=classic;html=1;strokeColor=#DDA15E;fillColor=#BC6C25;fontColor=#FEFAE0;" edge="1" parent="1" target="qOLbYZmSiS41-zX6Ey2k-12">
          <mxGeometry width="50" height="50" relative="1" as="geometry">
            <mxPoint x="90" y="360" as="sourcePoint" />
            <mxPoint x="440" y="260" as="targetPoint" />
          </mxGeometry>
        </mxCell>
        <mxCell id="qOLbYZmSiS41-zX6Ey2k-22" value="" style="endArrow=classic;html=1;strokeColor=#DDA15E;fillColor=#BC6C25;fontColor=#FEFAE0;" edge="1" parent="1" target="qOLbYZmSiS41-zX6Ey2k-14">
          <mxGeometry width="50" height="50" relative="1" as="geometry">
            <mxPoint x="90" y="360" as="sourcePoint" />
            <mxPoint x="440" y="260" as="targetPoint" />
          </mxGeometry>
        </mxCell>
      </root>
    </mxGraphModel>
  </diagram>
</mxfile>
